<svg version="1.0" xmlns="http://www.w3.org/2000/svg" width="512.000000pt" height="512.000000pt"
  viewBox="0 0 512.000000 512.000000" preserveAspectRatio="xMidYMid meet">

  <g transform="translate(0.000000,512.000000) scale(0.100000,-0.100000)" fill="tomato" stroke="none">
    <path d="M1340 5104 c-216 -57 -394 -239 -450 -460 -9 -36 -14 -42 -52 -54
-130 -38 -248 -156 -300 -298 -30 -83 -30 -225 2 -307 28 -73 81 -156 122
-191 l31 -25 -65 -67 c-152 -155 -246 -334 -295 -562 -26 -123 -23 -328 6
-435 36 -133 100 -254 194 -367 l39 -47 3 -103 c2 -120 22 -204 71 -304 65
-133 177 -245 312 -314 l60 -30 -11 -43 c-6 -23 -11 -118 -11 -212 -1 -154 2
-180 27 -277 48 -184 110 -314 218 -457 118 -157 323 -321 401 -321 48 0 98
43 98 85 l0 27 48 -36 c122 -93 323 -189 394 -190 25 0 45 7 62 23 l25 24 73
-50 c87 -60 189 -113 218 -113 34 0 180 82 276 155 9 6 20 3 36 -12 13 -12 35
-24 49 -28 49 -12 261 84 384 174 l70 52 3 -30 c5 -46 47 -81 96 -81 33 0 57
10 126 57 360 244 568 693 520 1121 -6 57 -13 109 -16 117 -4 8 16 24 56 44
137 70 248 181 313 314 50 103 70 186 72 305 l3 103 39 47 c94 113 158 234
194 367 26 95 31 308 10 415 -44 223 -141 416 -287 570 l-72 75 48 53 c176
190 170 474 -12 656 -59 59 -171 126 -211 126 -10 0 -23 28 -41 84 -58 187
-213 347 -389 405 -152 49 -185 40 -232 -63 -42 -90 -84 -142 -165 -204 -128
-97 -196 -187 -242 -317 -15 -44 -31 -80 -35 -80 -4 0 -50 18 -101 40 -66 28
-94 45 -97 60 -3 11 -21 98 -40 194 -40 195 -62 247 -130 310 -71 66 -124 86
-225 86 -101 0 -154 -20 -225 -86 -68 -63 -90 -115 -130 -310 -19 -96 -37
-183 -40 -194 -3 -15 -31 -32 -97 -60 -51 -22 -97 -40 -101 -40 -4 0 -19 32
-32 70 -45 134 -118 231 -245 327 -81 61 -123 113 -165 203 -44 97 -72 109
-185 79z m1295 -208 c33 -22 52 -62 69 -142 14 -66 14 -66 -8 -59 -101 29
-171 29 -273 -1 l-21 -6 17 81 c10 44 26 90 37 102 43 49 125 60 179 25z
m-1253 -28 c27 -58 105 -144 178 -198 38 -28 86 -71 105 -93 38 -44 91 -144
82 -153 -3 -3 -42 13 -87 36 -151 76 -416 150 -537 150 -31 0 -34 2 -27 23 16
51 56 117 97 160 42 42 139 107 163 107 6 0 17 -15 26 -32z m2447 1 c88 -50
169 -149 196 -236 6 -21 3 -23 -28 -23 -123 0 -396 -77 -543 -154 l-86 -44 7
26 c18 73 86 159 186 233 72 53 150 140 177 197 9 17 20 32 26 32 6 0 35 -14
65 -31z m-1220 -359 c39 -11 86 -51 107 -92 36 -68 6 -171 -63 -218 -51 -35
-135 -35 -186 0 -49 33 -77 86 -77 144 0 118 107 198 219 166z m-1375 -116
c248 -47 470 -162 638 -329 258 -256 357 -617 257 -940 -19 -61 -22 -65 -50
-65 -19 0 -32 6 -36 18 -63 185 -145 322 -273 451 -201 205 -436 311 -725 328
-152 9 -215 38 -283 132 -108 148 -26 366 156 418 55 15 195 9 316 -13z m2974
11 c69 -21 129 -69 166 -135 27 -48 31 -65 31 -130 0 -64 -4 -83 -30 -128 -59
-107 -124 -141 -292 -154 -293 -21 -534 -128 -728 -323 -118 -118 -224 -291
-266 -432 -11 -39 -15 -43 -44 -43 -31 0 -33 2 -54 73 -61 206 -37 466 61 662
74 146 217 309 353 402 167 113 382 191 588 213 116 12 160 11 215 -5z m-1953
-274 c36 -54 88 -94 162 -128 47 -22 73 -27 138 -28 173 0 307 97 360 262 l21
64 82 -41 c45 -23 82 -46 82 -51 0 -6 -26 -39 -57 -75 -251 -279 -344 -672
-248 -1046 l7 -27 -74 27 c-103 36 -242 36 -341 -1 -48 -17 -67 -21 -63 -12 3
8 12 47 20 87 71 349 -28 704 -277 991 -58 66 -61 59 48 113 l69 34 21 -64
c11 -35 34 -82 50 -105z m-1039 -501 c84 -22 240 -94 288 -133 l29 -24 -46
-22 c-59 -29 -120 -89 -149 -149 -30 -63 -36 -172 -13 -241 21 -64 92 -144
159 -179 44 -23 63 -27 141 -27 68 0 98 4 123 18 19 10 35 17 37 15 2 -2 -6
-33 -18 -68 l-22 -65 -75 -37 c-100 -50 -175 -68 -285 -68 -165 0 -301 56
-415 170 -112 112 -170 252 -170 412 0 143 51 282 139 380 l45 51 77 -7 c42
-3 112 -15 155 -26z m2971 -21 c93 -111 152 -290 138 -419 -27 -245 -174 -433
-399 -512 -149 -51 -349 -33 -490 45 -57 32 -60 35 -81 100 -18 58 -19 67 -6
61 69 -30 101 -36 166 -32 89 6 156 39 218 108 59 66 80 128 75 223 -6 118
-70 217 -171 266 -26 13 -45 27 -42 32 11 18 146 92 219 120 82 32 203 57 281
58 48 1 52 -1 92 -50z m-3563 -584 c83 -282 293 -485 576 -556 72 -18 104 -21
215 -17 124 5 207 24 334 75 22 9 -27 -55 -82 -109 -60 -57 -177 -119 -283
-150 -122 -35 -279 -33 -398 6 -149 49 -287 156 -369 286 -117 188 -136 415
-55 658 l33 97 6 -115 c3 -63 14 -142 23 -175z m3956 120 c27 -106 35 -235 20
-325 -42 -256 -221 -466 -466 -546 -118 -38 -276 -41 -397 -6 -149 43 -279
124 -345 216 -18 25 -31 46 -29 46 3 0 35 -11 72 -25 101 -38 195 -55 309 -55
130 0 229 24 356 87 81 39 109 60 191 142 86 86 102 108 147 201 61 127 82
211 85 331 l2 91 18 -41 c10 -23 27 -75 37 -116z m-1901 -251 c23 -9 41 -19
41 -23 0 -3 -7 -28 -15 -55 -48 -158 32 -330 186 -400 79 -37 158 -43 236 -18
l62 20 53 -66 c163 -203 463 -328 742 -309 121 9 192 28 345 94 11 5 13 -2 9
-33 -17 -119 -99 -245 -206 -318 -98 -67 -167 -89 -282 -89 -144 -1 -228 31
-351 134 -363 305 -831 415 -1287 303 -198 -49 -361 -128 -524 -253 -209 -161
-261 -185 -413 -185 -195 -1 -367 106 -450 279 -39 80 -58 173 -34 162 153
-66 224 -85 345 -94 283 -19 606 118 747 318 33 46 46 57 62 53 11 -3 43 -12
70 -21 140 -41 312 42 381 183 35 71 43 172 20 243 -9 27 -16 52 -16 55 0 5
70 31 105 40 34 8 131 -3 174 -20z m-511 -54 c61 -37 80 -130 39 -191 -75
-112 -236 -75 -254 59 -15 114 115 193 215 132z m939 0 c91 -55 81 -192 -17
-243 -88 -45 -200 27 -200 129 0 36 36 97 68 117 37 23 109 21 149 -3z m-1243
-1318 c104 -108 240 -188 386 -227 98 -26 433 -33 559 -11 211 37 413 165 538
343 l30 42 52 -39 c52 -39 168 -100 190 -100 22 0 9 -27 -54 -111 -175 -233
-439 -390 -732 -434 -128 -19 -418 -19 -546 0 -291 44 -558 202 -731 433 -64
85 -78 112 -55 112 22 0 138 61 190 100 l52 39 30 -42 c16 -23 57 -71 91 -105z
m-578 -59 c219 -363 513 -582 894 -664 95 -21 132 -23 375 -24 303 0 365 8
547 71 127 44 189 76 309 155 157 105 305 266 423 462 12 19 25 27 45 27 33 0
36 -9 47 -140 20 -233 -82 -540 -236 -712 l-47 -52 5 62 c5 74 -10 117 -49
137 -62 33 -104 12 -166 -83 -52 -78 -152 -182 -232 -241 -60 -44 -122 -81
-136 -81 -3 0 -5 19 -5 43 0 23 -7 52 -15 63 -19 28 -69 48 -99 40 -13 -3 -77
-59 -142 -123 -73 -72 -144 -132 -183 -155 l-63 -37 -60 37 c-78 48 -194 149
-238 206 -19 25 -50 52 -68 61 -66 33 -130 -9 -139 -89 -3 -25 -8 -46 -10 -46
-2 0 -37 21 -76 46 -94 61 -206 170 -274 267 -30 42 -64 84 -76 92 -32 23 -82
19 -114 -9 -26 -22 -28 -32 -33 -108 l-5 -83 -63 84 c-151 201 -223 430 -209
670 8 139 12 151 48 151 20 0 33 -8 45 -27z" />
  </g>
</svg>